<svg width="37" height="41" viewBox="0 0 37 41" fill="none" xmlns="http://www.w3.org/2000/svg">
<path d="M2.00049 22.3331C2.00049 25.5965 2.9682 28.7866 4.78124 31.5C6.59428 34.2134 9.17123 36.3282 12.1862 37.5771C15.2012 38.8259 18.5188 39.1527 21.7195 38.516C24.9202 37.8794 27.8602 36.3079 30.1677 34.0003C32.4753 31.6928 34.0468 28.7527 34.6834 25.5521C35.3201 22.3514 34.9933 19.0338 33.7445 16.0188C32.4957 13.0038 30.3808 10.4269 27.6674 8.61382C24.954 6.80078 21.7639 5.83307 18.5005 5.83307M13.0005 14.9997V27.8331" stroke="white" stroke-width="2.75" stroke-linecap="round" stroke-linejoin="round"/>
<path d="M24.0005 15.0001H20.3338C19.8476 15.0001 19.3813 15.1933 19.0375 15.5371C18.6936 15.8809 18.5005 16.3472 18.5005 16.8335V19.5835C18.5005 20.0697 18.6936 20.536 19.0375 20.8798C19.3813 21.2237 19.8476 21.4168 20.3338 21.4168H22.1672C22.6534 21.4168 23.1197 21.61 23.4635 21.9538C23.8073 22.2976 24.0005 22.7639 24.0005 23.2501V26.0001C24.0005 26.4864 23.8073 26.9527 23.4635 27.2965C23.1197 27.6403 22.6534 27.8335 22.1672 27.8335H18.5005M18.5005 5.83348H4.75049M4.75049 5.83348L8.41716 2.16681M4.75049 5.83348L8.41716 9.50014" stroke="white" stroke-width="2.75" stroke-linecap="round" stroke-linejoin="round"/>
</svg>
