<svg width="37" height="41" viewBox="0 0 37 41" fill="none" xmlns="http://www.w3.org/2000/svg">
<path d="M35.0009 22.3329C35.0009 25.5963 34.0332 28.7864 32.2202 31.4998C30.4071 34.2132 27.8302 36.3281 24.8152 37.5769C21.8002 38.8258 18.4826 39.1525 15.2819 38.5159C12.0812 37.8792 9.14123 36.3078 6.83366 34.0002C4.52609 31.6926 2.95462 28.7526 2.31797 25.5519C1.68131 22.3512 2.00806 19.0336 3.25691 16.0186C4.50576 13.0037 6.6206 10.4267 9.33401 8.61368C12.0474 6.80063 15.2375 5.83293 18.5009 5.83293H32.2509M32.2509 5.83293L28.5843 2.16626M32.2509 5.83293L28.5843 9.49959M13.0009 14.9996V27.8329" stroke="white" stroke-width="2.75" stroke-linecap="round" stroke-linejoin="round"/>
<path d="M24.0009 14.9991H20.3342C19.848 14.9991 19.3816 15.1923 19.0378 15.5361C18.694 15.8799 18.5009 16.3462 18.5009 16.8325V19.5825C18.5009 20.0687 18.694 20.535 19.0378 20.8788C19.3816 21.2227 19.848 21.4158 20.3342 21.4158H22.1675C22.6538 21.4158 23.1201 21.609 23.4639 21.9528C23.8077 22.2966 24.0009 22.7629 24.0009 23.2491V25.9991C24.0009 26.4854 23.8077 26.9517 23.4639 27.2955C23.1201 27.6393 22.6538 27.8325 22.1675 27.8325H18.5009" stroke="white" stroke-width="2.75" stroke-linecap="round" stroke-linejoin="round"/>
</svg>
