<svg width="71" height="71" viewBox="0 0 71 71" fill="none" xmlns="http://www.w3.org/2000/svg">
<path d="M35.5 0.5C16.18 0.5 0.5 16.18 0.5 35.5C0.5 54.82 16.18 70.5 35.5 70.5C54.82 70.5 70.5 54.82 70.5 35.5C70.5 16.18 54.82 0.5 35.5 0.5ZM28.5 49.5C26.575 49.5 25 47.925 25 46V25C25 23.075 26.575 21.5 28.5 21.5C30.425 21.5 32 23.075 32 25V46C32 47.925 30.425 49.5 28.5 49.5ZM42.5 49.5C40.575 49.5 39 47.925 39 46V25C39 23.075 40.575 21.5 42.5 21.5C44.425 21.5 46 23.075 46 25V46C46 47.925 44.425 49.5 42.5 49.5Z" fill="white"/>
</svg>
