<svg width="22" height="22" viewBox="0 0 22 22" fill="none" xmlns="http://www.w3.org/2000/svg">
<path d="M10.3882 3.12805L2.82566 18.2531C2.76637 18.3716 2.74262 18.5048 2.75726 18.6365C2.77189 18.7682 2.8243 18.8929 2.90816 18.9956C2.99031 19.0936 3.09818 19.1667 3.21963 19.2068C3.34108 19.2469 3.4713 19.2523 3.59566 19.2224L10.3125 17.4006V9.62493H11.6875V17.4006L18.3838 19.2499C18.4876 19.278 18.5966 19.2812 18.702 19.2595C18.8073 19.2377 18.9061 19.1916 18.9903 19.1247C19.0746 19.0578 19.142 18.9721 19.1871 18.8745C19.2322 18.7768 19.2538 18.6699 19.25 18.5624C19.2494 18.4548 19.2235 18.3488 19.1744 18.2531L11.6119 3.12805C11.5542 3.01544 11.4666 2.92093 11.3586 2.85494C11.2506 2.78894 11.1266 2.75402 11 2.75402C10.8735 2.75402 10.7494 2.78894 10.6415 2.85494C10.5335 2.92093 10.4459 3.01544 10.3882 3.12805Z" fill="#AA73F0"/>
</svg>
