<svg width="22" height="22" viewBox="0 0 22 22" fill="none" xmlns="http://www.w3.org/2000/svg">
<path d="M19.3906 2.60724C19.07 2.28346 18.6703 2.04918 18.2311 1.92764C17.7919 1.80609 17.3286 1.80157 16.8871 1.91444L4.55944 4.99608C3.77641 5.19223 3.08198 5.64569 2.58758 6.2838C2.09318 6.9219 1.82746 7.70763 1.8331 8.51484C1.83873 9.32204 2.11542 10.104 2.61868 10.7351C3.12195 11.3662 3.82263 11.81 4.60833 11.9952L8.97608 13.0227L10.0036 17.3905C10.1797 18.1806 10.6207 18.8868 11.2534 19.3918C11.8861 19.8967 12.6725 20.1701 13.4821 20.1666H13.5093C14.3143 20.1759 15.0985 19.911 15.733 19.4155C16.3675 18.92 16.8147 18.2235 17.0009 17.4403L20.0826 5.11267C20.1955 4.67098 20.1911 4.20738 20.0697 3.76792C19.9483 3.32846 19.7142 2.92837 19.3906 2.60724ZM18.7156 4.76954L15.634 17.0971C15.5197 17.5763 15.2451 18.0021 14.8558 18.3041C14.4666 18.606 13.9859 18.7659 13.4933 18.7574C12.9992 18.7634 12.5183 18.5982 12.1323 18.2897C11.7463 17.9812 11.4791 17.5485 11.3762 17.0652L10.3421 12.6561L14.3206 8.67757C14.3861 8.61207 14.4381 8.53431 14.4735 8.44874C14.509 8.36316 14.5272 8.27144 14.5272 8.17882C14.5272 8.0862 14.509 7.99448 14.4735 7.90891C14.4381 7.82334 14.3861 7.74557 14.3206 7.68008C14.2551 7.61458 14.1773 7.56266 14.0918 7.52722C14.0062 7.49177 13.9145 7.47351 13.8219 7.47351C13.7292 7.47351 13.6375 7.49177 13.5519 7.52722C13.4664 7.56266 13.3887 7.61458 13.3232 7.68008L9.34463 11.6587L4.93551 10.6245C4.45724 10.5121 4.03063 10.2422 3.72422 9.85821C3.41781 9.47419 3.24938 8.99842 3.24602 8.50715C3.24265 8.01588 3.40456 7.53772 3.70569 7.14954C4.00681 6.76136 4.42968 6.48566 4.90636 6.36677L17.2331 3.28501C17.3317 3.2601 17.4331 3.24754 17.5348 3.24749C17.721 3.24749 17.9046 3.29 18.0718 3.37177C18.239 3.45354 18.3853 3.57236 18.4996 3.71926C18.6138 3.86617 18.693 4.03722 18.7311 4.21939C18.7692 4.40156 18.7652 4.59008 18.7194 4.77046L18.7156 4.76954Z" fill="white"/>
</svg>
