<svg width="10" height="19" viewBox="0 0 10 19" fill="none" xmlns="http://www.w3.org/2000/svg">
<path d="M4.15495 0.433517C3.1953 0.166453 2.44777 0.882032 2.17942 1.5465C1.87269 2.31015 1.60272 2.84688 1.28113 3.48624L1.27727 3.4939C1.07793 3.8913 0.858147 4.32959 0.596191 4.88672L1.75391 5.4298C1.98264 4.94295 2.19092 4.52766 2.38899 4.13281C2.74601 3.44445 3.07218 2.74053 3.36653 2.02313C3.41477 1.89674 3.49922 1.78739 3.60932 1.70878C3.69365 1.65384 3.75882 1.64873 3.81377 1.66406C4.1984 1.7714 4.3939 1.9669 4.51913 2.24163C4.6648 2.55598 4.72742 3.00066 4.74019 3.59868C4.75042 4.12003 4.63669 4.81517 4.47568 5.50263C4.31723 6.18116 4.123 6.80601 3.99522 7.16636C3.96108 7.26271 3.95055 7.36584 3.96453 7.4671C3.9785 7.56836 4.01657 7.66479 4.07554 7.74829C4.1345 7.83179 4.21264 7.89993 4.30339 7.94697C4.39414 7.99402 4.49486 8.0186 4.59708 8.01866H7.23707C7.43574 8.01855 7.63169 8.06475 7.80938 8.15361C7.98706 8.24247 8.14158 8.37154 8.26066 8.53056C8.37974 8.68958 8.4601 8.87417 8.49536 9.06968C8.53062 9.26519 8.51981 9.46623 8.46379 9.65683L6.72211 15.5936C6.65029 15.8381 6.53043 16.0659 6.36952 16.2635C6.20862 16.4612 6.00991 16.6248 5.78503 16.7447C5.56014 16.8647 5.31359 16.9386 5.05981 16.9621C4.80602 16.9856 4.27331 16.8908 4.30701 16.8816L3.5852 16.2027L3.15185 17.6267L3.92622 18.1007C4.33129 18.2279 4.75766 18.2731 5.18041 18.2337C5.60316 18.1942 6.0138 18.0709 6.38834 17.8709C6.76287 17.6709 7.09377 17.3983 7.36171 17.0689C7.62965 16.7395 7.82924 16.36 7.94882 15.9527L9.69178 10.0159C9.80356 9.63488 9.82502 9.23306 9.75445 8.8423C9.68388 8.45155 9.52323 8.08261 9.28525 7.76476C9.04726 7.44691 8.73848 7.18888 8.3834 7.01115C8.02832 6.83342 7.63671 6.74087 7.23963 6.74084H5.46983C5.56118 6.42789 5.64427 6.11258 5.71901 5.79525C5.88641 5.07712 6.02952 4.25804 6.01675 3.5744C6.00397 2.93932 5.94008 2.2723 5.6794 1.70623C5.39828 1.09798 4.90887 0.64308 4.15495 0.433517Z" fill="white"/>
</svg>
